<svg xmlns="http://www.w3.org/2000/svg" viewBox="0 0 512 512">
  <defs>
    <linearGradient id="grad1" x1="0%" y1="0%" x2="100%" y2="100%">
      <stop offset="0%" stop-color="#6366f1"/>
      <stop offset="50%" stop-color="#a855f7"/>
      <stop offset="100%" stop-color="#ec4899"/>
    </linearGradient>
    <linearGradient id="grad2" x1="100%" y1="100%" x2="0%" y2="0%">
      <stop offset="0%" stop-color="#06b6d4"/>
      <stop offset="100%" stop-color="#3b82f6"/>
    </linearGradient>
    <filter id="glow" x="-20%" y="-20%" width="140%" height="140%">
      <feGaussianBlur stdDeviation="16" result="blur"/>
      <feComposite in="SourceGraphic" in2="blur" operator="over"/>
    </filter>
  </defs>
  <!-- Main Star Shape -->
  <path d="M256 32 C 280 180 332 232 480 256 C 332 280 280 332 256 480 C 232 332 180 280 32 256 C 180 232 232 180 256 32 Z" fill="url(#grad1)" filter="url(#glow)"/>
  <!-- Inner Accented Star -->
  <path d="M256 96 C 270 190 322 242 416 256 C 322 270 270 322 256 416 C 242 322 190 270 96 256 C 190 242 242 190 256 96 Z" fill="url(#grad2)"/>
  <!-- Bright Center Ring -->
  <circle cx="256" cy="256" r="48" fill="none" stroke="#ffffff" stroke-width="12" opacity="0.8" />
  <!-- Center Dot -->
  <circle cx="256" cy="256" r="24" fill="#ffffff" />
</svg>
